<?xml version="1.0" standalone="no"?>
<!DOCTYPE svg PUBLIC "-//W3C//DTD SVG 20010904//EN" "http://www.w3.org/TR/2001/REC-SVG-20010904/DTD/svg10.dtd">
<svg class="icon" width="100%" height="100%" viewBox="0 0 100 100" version="1.1"
     xmlns="http://www.w3.org/2000/svg"
     xmlns:xlink="http://www.w3.org/1999/xlink">
    <defs>
        <clipPath>
            <rect x="0" y="0" width="100" height="100" rx="50"/>
        </clipPath>
    </defs>
    <g style="mix-blend-mode:passthrough" clip-path="url(#master_svg0_50_0939)">
        <rect x="0" y="0" width="100" height="100" rx="50" fill="#401487" fill-opacity="1"/>
        <g style="mix-blend-mode:passthrough">
            <ellipse cx="50.5" cy="50.5" rx="40.5" ry="40.5" fill="#FFF33B" fill-opacity="1"/>
        </g>
        <g style="mix-blend-mode:passthrough">
            <path d="M18.99707,63.388L27.709,63.388C33.0908,63.388,37.151399999999995,61.1214,37.151399999999995,56.147800000000004C37.151399999999995,52.8284,35.2393,50.937799999999996,32.5967,50.314800000000005L32.5967,50.185900000000004C34.6699,49.4232,35.9268,47.0921,35.9268,44.750299999999996C35.9268,40.1312,32.1025,38.638,27.085900000000002,38.638L18.99707,38.638L18.99707,63.388ZM23.88477,48.8001L23.88477,42.408500000000004L26.7852,42.408500000000004C29.7285,42.408500000000004,31.1787,43.2894,31.1787,45.502300000000005C31.1787,47.500299999999996,29.8574,48.8001,26.7529,48.8001L23.88477,48.8001ZM23.88477,59.6282L23.88477,52.388000000000005L27.2793,52.388000000000005C30.6523,52.388000000000005,32.3926,53.43,32.3926,55.847C32.3926,58.4251,30.5771,59.6282,27.2793,59.6282L23.88477,59.6282ZM38.5479,63.388L43.5,63.388L45.2188,56.8782L53.1035,56.8782L54.8223,63.388L59.9678,63.388L52.1475,38.638L46.3682,38.638L38.5479,63.388ZM46.2715,53.075500000000005L47.001999999999995,50.4007C47.7217,47.8441,48.4199,45.061800000000005,49.0752,42.3763L49.2148,42.3763C49.9346,44.9974,50.6006,47.8441,51.3525,50.4007L52.083,53.075500000000005L46.2715,53.075500000000005ZM62.9971,63.388L67.64840000000001,63.388L67.64840000000001,53.473C67.64840000000001,50.5833,67.2188,47.4681,67.02539999999999,44.7825L67.1865,44.7825L69.668,50.1107L76.6934,63.388L81.6777,63.388L81.6777,38.638L77.0586,38.638L77.0586,48.4671C77.0586,51.388999999999996,77.45609999999999,54.676100000000005,77.7139,57.2542L77.5527,57.2542L75.082,51.8939L67.98140000000001,38.638L62.9971,38.638L62.9971,63.388Z"
                  fill="#401487" fill-opacity="1"/>
        </g>
    </g>
</svg>
